<?xml version="1.0" encoding="UTF-8"?>
<svg width="40px" height="40px" viewBox="0 0 40 40" version="1.1" xmlns="http://www.w3.org/2000/svg" xmlns:xlink="http://www.w3.org/1999/xlink">
    <!-- Generator: Sketch 52.6 (67491) - http://www.bohemiancoding.com/sketch -->
    <title>CSP/html/images/btn_round_delete</title>
    <desc>Created with Sketch.</desc>
    <defs>
        <linearGradient x1="50%" y1="100%" x2="50%" y2="3.061617e-15%" id="linearGradient-1">
            <stop stop-color="#FF6420" offset="0%"></stop>
            <stop stop-color="#FF8C80" offset="100%"></stop>
        </linearGradient>
    </defs>
    <g id="CSP/html/images/btn_round_delete" stroke="none" stroke-width="1" fill="none" fill-rule="evenodd">
        <circle id="Oval" fill="url(#linearGradient-1)" cx="20" cy="20" r="20"></circle>
        <g id="Group" transform="translate(12.000000, 12.000000)" fill="#FFFFFF">
            <path d="M0.595402366,13.7423891 L13.7423891,0.595402366 C13.9827933,0.354998158 14.3088514,0.21994048 14.6488342,0.21994048 L14.7553824,0.21994048 C15.0271436,0.21994048 15.2877743,0.327897228 15.4799385,0.520061471 L15.4799385,0.520061471 C15.6721028,0.712225714 15.7800595,0.972856358 15.7800595,1.24461764 L15.7800595,1.35116575 C15.7800595,1.69114864 15.6450018,2.01720672 15.4045976,2.25761093 L2.25761093,15.4045976 C2.01720672,15.6450018 1.69114864,15.7800595 1.35116575,15.7800595 L1.24461764,15.7800595 C0.972856358,15.7800595 0.712225714,15.6721028 0.520061471,15.4799385 L0.520061471,15.4799385 C0.327897228,15.2877743 0.21994048,15.0271436 0.21994048,14.7553824 L0.21994048,14.6488342 C0.21994048,14.3088514 0.354998158,13.9827933 0.595402366,13.7423891 Z" id="Rectangle"></path>
            <path d="M2.25761093,0.595402366 L15.4045976,13.7423891 C15.6450018,13.9827933 15.7800595,14.3088514 15.7800595,14.6488342 L15.7800595,14.7553824 C15.7800595,15.0271436 15.6721028,15.2877743 15.4799385,15.4799385 L15.4799385,15.4799385 C15.2877743,15.6721028 15.0271436,15.7800595 14.7553824,15.7800595 L14.6488342,15.7800595 C14.3088514,15.7800595 13.9827933,15.6450018 13.7423891,15.4045976 L0.595402366,2.25761093 C0.354998158,2.01720672 0.21994048,1.69114864 0.21994048,1.35116575 L0.21994048,1.24461764 C0.21994048,0.972856358 0.327897228,0.712225714 0.520061471,0.520061471 L0.520061471,0.520061471 C0.712225714,0.327897228 0.972856358,0.21994048 1.24461764,0.21994048 L1.35116575,0.21994048 C1.69114864,0.21994048 2.01720672,0.354998158 2.25761093,0.595402366 Z" id="Rectangle"></path>
        </g>
    </g>
</svg>