<?xml version="1.0" encoding="UTF-8"?>
<svg width="30px" height="30px" viewBox="0 0 30 30" version="1.1" xmlns="http://www.w3.org/2000/svg" xmlns:xlink="http://www.w3.org/1999/xlink">
    <!-- Generator: Sketch 50.2 (55047) - http://www.bohemiancoding.com/sketch -->
    <title>images/btn_billingreport</title>
    <desc>Created with Sketch.</desc>
    <defs></defs>
    <g id="images/btn_billingreport" stroke="none" stroke-width="1" fill="none" fill-rule="evenodd">
        <g id="boxicon-dollar-circle" transform="translate(2.000000, 2.000000)" fill="#686868" fill-rule="nonzero">
            <path d="M13,0 C5.8318,0 0,5.8318 0,13 C0,20.1682 5.8318,26 13,26 C20.1682,26 26,20.1682 26,13 C26,5.8318 20.1682,0 13,0 Z M13,23.4 C7.2657,23.4 2.6,18.7343 2.6,13 C2.6,7.2657 7.2657,2.6 13,2.6 C18.7343,2.6 23.4,7.2657 23.4,13 C23.4,18.7343 18.7343,23.4 13,23.4 Z" id="Shape"></path>
            <path d="M13,16.25 L13,13.75 L12.125,13.75 C9.85075,13.75 8,12.0675 8,10 C8.006875,8.85 8.924,6.81 12.125,6.35 L12.125,5 L14.875,5 L14.875,6.25 L17.604375,6.25 L17.604375,8.75 L14,8.75 L14,11.25 L14.875,11.25 C17.14925,11.25 19,12.9325 19,15 C18.987625,16.1525 18.066375,18.19 14.875,18.65 L14.875,20 L12.125,20 L12.125,18.75 L9.375,18.75 L9.375,16.25 L13,16.25 Z M14,16.2345221 C16.0483191,16.1017496 16.2347625,15.1547264 16.251375,14.95375 C16.25,14.31 15.634,13.75 14.875,13.75 L14,13.75 L14,16.2345221 Z M13,8.76538277 C10.783613,8.90808648 10.75,9.99582025 10.75,10.0075 C10.75,10.68875 11.366,11.25 12.125,11.25 L13,11.25 L13,8.76538277 Z" id="Combined-Shape"></path>
        </g>
    </g>
</svg>