<?xml version="1.0" encoding="UTF-8"?>
<svg width="37px" height="37px" viewBox="0 0 37 37" version="1.1" xmlns="http://www.w3.org/2000/svg" xmlns:xlink="http://www.w3.org/1999/xlink">
    <!-- Generator: Sketch 52.6 (67491) - http://www.bohemiancoding.com/sketch -->
    <title>CSP/html/images/btn_round_delete_disable</title>
    <desc>Created with Sketch.</desc>
    <defs>
        <linearGradient x1="50%" y1="100%" x2="50%" y2="3.061617e-15%" id="linearGradient-1">
            <stop stop-color="#BFBFBF" offset="0%"></stop>
            <stop stop-color="#E7E7E7" offset="100%"></stop>
        </linearGradient>
    </defs>
    <g id="CSP/html/images/btn_round_delete_disable" stroke="none" stroke-width="1" fill="none" fill-rule="evenodd">
        <circle id="Oval-Copy-2" fill="url(#linearGradient-1)" cx="18.5" cy="18.5" r="18.5"></circle>
        <g id="Group" transform="translate(11.000000, 11.000000)" fill="#A2A2A2">
            <path d="M0.558189718,12.8834898 L12.8834898,0.558189718 C13.1088687,0.332810773 13.4145481,0.2061942 13.7332821,0.2061942 L13.833171,0.2061942 C14.0879472,0.2061942 14.3322884,0.307403651 14.5124424,0.487557629 L14.5124424,0.487557629 C14.6925963,0.667711607 14.7938058,0.912052835 14.7938058,1.16682903 L14.7938058,1.26671789 C14.7938058,1.58545185 14.6671892,1.8911313 14.4418103,2.11651024 L2.11651024,14.4418103 C1.8911313,14.6671892 1.58545185,14.7938058 1.26671789,14.7938058 L1.16682903,14.7938058 C0.912052835,14.7938058 0.667711607,14.6925963 0.487557629,14.5124424 L0.487557629,14.5124424 C0.307403651,14.3322884 0.2061942,14.0879472 0.2061942,13.833171 L0.2061942,13.7332821 C0.2061942,13.4145481 0.332810773,13.1088687 0.558189718,12.8834898 Z" id="Rectangle"></path>
            <path d="M2.11651024,0.558189718 L14.4418103,12.8834898 C14.6671892,13.1088687 14.7938058,13.4145481 14.7938058,13.7332821 L14.7938058,13.833171 C14.7938058,14.0879472 14.6925963,14.3322884 14.5124424,14.5124424 L14.5124424,14.5124424 C14.3322884,14.6925963 14.0879472,14.7938058 13.833171,14.7938058 L13.7332821,14.7938058 C13.4145481,14.7938058 13.1088687,14.6671892 12.8834898,14.4418103 L0.558189718,2.11651024 C0.332810773,1.8911313 0.2061942,1.58545185 0.2061942,1.26671789 L0.2061942,1.16682903 C0.2061942,0.912052835 0.307403651,0.667711607 0.487557629,0.487557629 L0.487557629,0.487557629 C0.667711607,0.307403651 0.912052835,0.2061942 1.16682903,0.2061942 L1.26671789,0.2061942 C1.58545185,0.2061942 1.8911313,0.332810773 2.11651024,0.558189718 Z" id="Rectangle"></path>
        </g>
    </g>
</svg>