<?xml version="1.0" encoding="UTF-8"?>
<svg width="40px" height="40px" viewBox="0 0 40 40" version="1.1" xmlns="http://www.w3.org/2000/svg" xmlns:xlink="http://www.w3.org/1999/xlink">
    <!-- Generator: Sketch 52.6 (67491) - http://www.bohemiancoding.com/sketch -->
    <title>CSP/html/images/btn_round_resetpassword</title>
    <desc>Created with Sketch.</desc>
    <defs>
        <linearGradient x1="50%" y1="100%" x2="50%" y2="3.061617e-15%" id="linearGradient-1">
            <stop stop-color="#FFC920" offset="0%"></stop>
            <stop stop-color="#FFDA80" offset="100%"></stop>
        </linearGradient>
    </defs>
    <g id="CSP/html/images/btn_round_resetpassword" stroke="none" stroke-width="1" fill="none" fill-rule="evenodd">
        <circle id="Oval" fill="url(#linearGradient-1)" cx="20" cy="20" r="20"></circle>
        <path d="M19,24.8292943 C17.8348076,24.4174579 17,23.3062188 17,22 C17,20.3431458 18.3431458,19 20,19 C21.6568542,19 23,20.3431458 23,22 C23,23.3062188 22.1651924,24.4174579 21,24.8292943 L21,26.8823529 L25.8823529,26.8823529 L25.8823529,16.8823529 L13.8823529,16.8823529 L13.8823529,26.8823529 L19,26.8823529 L19,24.8292943 Z M12,15 L28,15 L28,29.1176471 L12,29.1176471 L12,15 Z M20,23.7142857 C20.9467739,23.7142857 21.7142857,22.9467739 21.7142857,22 C21.7142857,21.0532261 20.9467739,20.2857143 20,20.2857143 C19.0532261,20.2857143 18.2857143,21.0532261 18.2857143,22 C18.2857143,22.9467739 19.0532261,23.7142857 20,23.7142857 Z" id="Combined-Shape" fill="#1B1B1B" fill-rule="nonzero"></path>
        <path d="M16,16 L24,16 L24,12 C24,10.8954305 23.1045695,10 22,10 L18,10 C16.8954305,10 16,10.8954305 16,12 L16,16 Z" id="Rectangle" stroke="#000000" stroke-width="2"></path>
    </g>
</svg>