<?xml version="1.0" encoding="UTF-8"?>
<svg width="37px" height="37px" viewBox="0 0 37 37" version="1.1" xmlns="http://www.w3.org/2000/svg" xmlns:xlink="http://www.w3.org/1999/xlink">
    <!-- Generator: Sketch 52.6 (67491) - http://www.bohemiancoding.com/sketch -->
    <title>CSP/html/images/btn_round_resetpassword_disable</title>
    <desc>Created with Sketch.</desc>
    <defs>
        <linearGradient x1="50%" y1="100%" x2="50%" y2="3.061617e-15%" id="linearGradient-1">
            <stop stop-color="#BFBFBF" offset="0%"></stop>
            <stop stop-color="#E7E7E7" offset="100%"></stop>
        </linearGradient>
    </defs>
    <g id="CSP/html/images/btn_round_resetpassword_disable" stroke="none" stroke-width="1" fill="none" fill-rule="evenodd">
        <path d="M19,24.8292943 C17.8348076,24.4174579 17,23.3062188 17,22 C17,20.3431458 18.3431458,19 20,19 C21.6568542,19 23,20.3431458 23,22 C23,23.3062188 22.1651924,24.4174579 21,24.8292943 L21,26.8823529 L25.8823529,26.8823529 L25.8823529,16.8823529 L13.8823529,16.8823529 L13.8823529,26.8823529 L19,26.8823529 L19,24.8292943 Z M12,15 L28,15 L28,29.1176471 L12,29.1176471 L12,15 Z M20,23.7142857 C20.9467739,23.7142857 21.7142857,22.9467739 21.7142857,22 C21.7142857,21.0532261 20.9467739,20.2857143 20,20.2857143 C19.0532261,20.2857143 18.2857143,21.0532261 18.2857143,22 C18.2857143,22.9467739 19.0532261,23.7142857 20,23.7142857 Z" id="Combined-Shape" fill="#1B1B1B" fill-rule="nonzero"></path>
        <path d="M16,16 L24,16 L24,12 C24,10.8954305 23.1045695,10 22,10 L18,10 C16.8954305,10 16,10.8954305 16,12 L16,16 Z" id="Rectangle" stroke="#000000" stroke-width="2"></path>
        <circle id="Oval-Copy" fill="url(#linearGradient-1)" cx="18.5" cy="18.5" r="18.5"></circle>
        <g id="Group" opacity="0.298897879" transform="translate(10.000000, 7.000000)">
            <path d="M7.4375,16.4436252 C6.1994831,16.006049 5.3125,14.8253575 5.3125,13.4375 C5.3125,11.6770924 6.73959236,10.25 8.5,10.25 C10.2604076,10.25 11.6875,11.6770924 11.6875,13.4375 C11.6875,14.8253575 10.8005169,16.006049 9.5625,16.4436252 L9.5625,18.625 L14.75,18.625 L14.75,8 L2,8 L2,18.625 L7.4375,18.625 L7.4375,16.4436252 Z M0,6 L17,6 L17,21 L0,21 L0,6 Z M8.5,15.2589286 C9.50594722,15.2589286 10.3214286,14.4434472 10.3214286,13.4375 C10.3214286,12.4315528 9.50594722,11.6160714 8.5,11.6160714 C7.49405278,11.6160714 6.67857143,12.4315528 6.67857143,13.4375 C6.67857143,14.4434472 7.49405278,15.2589286 8.5,15.2589286 Z" id="Combined-Shape-Copy" fill="#1B1B1B" fill-rule="nonzero"></path>
            <path d="M4,7 L13,7 L13,3 C13,1.8954305 12.1045695,1 11,1 L6,1 C4.8954305,1 4,1.8954305 4,3 L4,7 Z" id="Rectangle-Copy" stroke="#000000" stroke-width="2"></path>
        </g>
    </g>
</svg>