<?xml version="1.0" encoding="UTF-8"?>
<svg width="100px" height="60px" viewBox="0 0 100 60" version="1.1" xmlns="http://www.w3.org/2000/svg" xmlns:xlink="http://www.w3.org/1999/xlink">
    <!-- Generator: Sketch 50.2 (55047) - http://www.bohemiancoding.com/sketch -->
    <title>images/CSP-logo</title>
    <desc>Created with Sketch.</desc>
    <defs>
        <linearGradient x1="100%" y1="0%" x2="0%" y2="0%" id="linearGradient-1">
            <stop stop-color="#484848" stop-opacity="0" offset="0%"></stop>
            <stop stop-color="#FFECA4" offset="50.5261019%"></stop>
            <stop stop-color="#333333" stop-opacity="0" offset="100%"></stop>
        </linearGradient>
        <linearGradient x1="50%" y1="0%" x2="50%" y2="100%" id="linearGradient-2">
            <stop stop-color="#FFEA00" offset="0%"></stop>
            <stop stop-color="#FFD000" offset="100%"></stop>
        </linearGradient>
    </defs>
    <g id="Symbols" stroke="none" stroke-width="1" fill="none" fill-rule="evenodd">
        <g id="CSP/side-menu-psc">
            <rect id="Rectangle-2" fill="#494949" x="0" y="0" width="100" height="900"></rect>
            <g id="Group" transform="translate(1.000000, 18.000000)">
                <rect id="Rectangle" fill="url(#linearGradient-1)" transform="translate(49.500000, 40.000000) scale(1, -1) translate(-49.500000, -40.000000) " x="0" y="39" width="99" height="2"></rect>
                <g id="Group-4" transform="translate(20.000000, 0.000000)" fill="url(#linearGradient-2)">
                    <path d="M19,20.7233624 C16.852416,22.9604803 14.0785394,24 11.0659275,24 C3.31106155,24 0.0301567064,18.360262 0.000185610735,12.6262009 C-0.0295787877,6.86026201 3.51982573,1 11.0659275,1 C13.8995396,1 16.584123,2.13427948 18.7315003,4.37117904 L16.1066524,7.04934498 C14.734803,5.63144105 12.8854831,4.969869 11.0659275,4.969869 C6.02540933,4.969869 3.84785421,8.93973799 3.8776186,12.6262009 C3.9075897,16.280786 5.90593834,20.0932314 11.0659275,20.0932314 C12.8854831,20.0932314 14.9435672,19.3054585 16.3156233,17.8563319 L19,20.7233624 Z" id="Fill-4"></path>
                    <path d="M34.9717019,5.98258198 C34.2102688,4.74271759 32.1169869,3.56471753 29.7062948,3.56471753 C26.5976954,3.56471753 25.1069218,4.8357289 25.1069218,6.44763853 C25.1069218,8.33836728 27.3907817,8.86528817 30.0551384,9.17525427 C34.6861645,9.73310732 39,10.9111074 39,16.0875197 C39,20.9232486 34.6226385,23 29.6744218,23 C25.1385749,23 21.6494788,21.6361921 20,17.6684972 L23.4893159,15.9017119 C24.4723209,18.2884294 27.0417182,19.3422712 29.7377281,19.3422712 C32.3706515,19.3422712 34.8448697,18.443305 34.8448697,16.0875197 C34.8448697,14.0419153 32.6561889,13.2050283 29.7062948,12.8948474 C25.170228,12.3679266 20.9832248,11.1901413 20.9832248,6.32348024 C20.9832248,1.86001139 25.4876384,0.0311469745 29.5794625,0 C33.0366857,0 36.6211807,0.961045268 38.3020929,4.30880801 L34.9717019,5.98258198 Z" id="Fill-6"></path>
                    <path d="M46.0486016,12.7374946 L52.1212914,12.7374946 C57.3048957,12.7374946 57.2740763,4.95432797 52.1212914,4.95432797 L46.0486016,4.95432797 L46.0486016,12.7374946 Z M52.1212914,16.5350152 L46.0486016,16.5350152 L46.0486016,23 L42,23 L42,1.03131796 C45.3737638,1.03131796 48.7475276,1 52.1212914,1 C62.6109272,1 62.641534,16.5350152 52.1212914,16.5350152 Z" id="Fill-9"></path>
                </g>
            </g>
        </g>
    </g>
</svg>