<?xml version="1.0" encoding="UTF-8"?>
<svg width="36px" height="36px" viewBox="0 0 36 36" version="1.1" xmlns="http://www.w3.org/2000/svg" xmlns:xlink="http://www.w3.org/1999/xlink">
    <!-- Generator: Sketch 52.6 (67491) - http://www.bohemiancoding.com/sketch -->
    <title>btn/btn-raw</title>
    <desc>Created with Sketch.</desc>
    <g id="btn/btn-raw" stroke="none" stroke-width="1" fill="none" fill-rule="evenodd">
        <g id="btn-bkg"></g>
        <path d="M21.6871813,22.4 C22.2747438,22.4 22.7496813,22.8928 22.7496813,23.5 C22.7496813,24.1072 22.2747438,24.6 21.6871813,24.6 L15.3121813,24.6 C14.7256813,24.6 14.2496813,24.1072 14.2496813,23.5 C14.2496813,22.8928 14.7256813,22.4 15.3121813,22.4 L21.6871813,22.4 Z M15.3121813,20.2 C14.7256813,20.2 14.2496813,19.7072 14.2496813,19.1 C14.2496813,18.4928 14.7256813,18 15.3121813,18 L18.4996813,18 C19.0861813,18 19.5621813,18.4928 19.5621813,19.1 C19.5621813,19.7072 19.0861813,20.2 18.4996813,20.2 L15.3121813,20.2 Z M24.28425,26.8 L12.7146875,26.8 C12.3895625,26.8 12.125,26.5536 12.125,26.25 L12.125,9.75 C12.125,9.4464 12.3895625,9.2 12.7146875,9.2 L18.5,9.2 L18.5,12.665 C18.5,14.3942 19.7930625,15.8 21.383625,15.8 L24.875,15.8 L24.875,26.25 C24.875,26.5536 24.6104375,26.8 24.28425,26.8 Z M20.625,10.2758 L23.538375,13.6 L21.383625,13.6 C20.965,13.6 20.625,13.1809 20.625,12.665 L20.625,10.2758 Z M26.72375,13.9608 L20.9395,7.3608 C20.737625,7.1309 20.452875,7 20.1521875,7 L12.7146875,7 C11.217625,7 10,8.2342 10,9.75 L10,26.25 C10,27.7658 11.217625,29 12.7146875,29 L24.28425,29 C25.7813125,29 27,27.7658 27,26.25 L27,14.7 C27,14.4261 26.9011875,14.1632 26.72375,13.9608 Z" id="Mask" fill="#231F20"></path>
    </g>
</svg>