<?xml version="1.0" encoding="UTF-8"?>
<svg width="36px" height="36px" viewBox="0 0 36 36" version="1.1" xmlns="http://www.w3.org/2000/svg" xmlns:xlink="http://www.w3.org/1999/xlink">
    <!-- Generator: Sketch 52.6 (67491) - http://www.bohemiancoding.com/sketch -->
    <title>btn/btn-edit</title>
    <desc>Created with Sketch.</desc>
    <g id="btn/btn-edit" stroke="none" stroke-width="1" fill="none" fill-rule="evenodd">
        <g id="btn-bkg"></g>
        <path d="M12.3662,18.9178411 L17.9832,13.3008411 L20.6792,15.9968411 L15.0792,21.6028411 L12.1022,21.8738411 L12.3662,18.9178411 Z M21.2712,10.0128411 L23.9662,12.7068411 L22.0182,14.6568411 L19.3232,11.9608411 L21.2712,10.0128411 Z M11.0002,23.9778411 C10.7362,23.9778411 10.4812,23.8738411 10.2932,23.6848411 C10.0832,23.4748411 9.9772,23.1828411 10.0042,22.8878411 L10.3832,18.7168411 C10.4252,18.2598411 10.6272,17.8288411 10.9522,17.5038411 L19.9482,8.50684107 C20.6502,7.80284107 21.9242,7.83784107 22.6642,8.57684107 L25.4022,11.3148411 L25.4032,11.3148411 C26.1692,12.0818411 26.1992,13.2988411 25.4712,14.0288411 L16.4742,23.0258411 C16.1492,23.3518411 15.7192,23.5528411 15.2612,23.5948411 L11.0912,23.9738411 C11.0602,23.9768411 11.0302,23.9778411 11.0002,23.9778411 Z M25,25.9779411 C25.55,25.9779411 26,26.4279411 26,26.9779411 C26,27.5279411 25.55,27.9779411 25,27.9779411 L11,27.9779411 C10.45,27.9779411 10,27.5279411 10,26.9779411 C10,26.4279411 10.45,25.9779411 11,25.9779411 L25,25.9779411 Z" id="Mask" fill="#231F20"></path>
    </g>
</svg>