<?xml version="1.0" encoding="UTF-8"?>
<svg width="36px" height="36px" viewBox="0 0 36 36" version="1.1" xmlns="http://www.w3.org/2000/svg" xmlns:xlink="http://www.w3.org/1999/xlink">
    <!-- Generator: Sketch 52.6 (67491) - http://www.bohemiancoding.com/sketch -->
    <title>btn/btn-delete</title>
    <desc>Created with Sketch.</desc>
    <g id="btn/btn-delete" stroke="none" stroke-width="1" fill="none" fill-rule="evenodd">
        <g id="btn-bkg"></g>
        <path d="M18,23 C17.45,23 17,22.55 17,22 L17,18 C17,17.45 17.45,17 18,17 C18.55,17 19,17.45 19,18 L19,22 C19,22.55 18.55,23 18,23 Z M15,23 C14.45,23 14,22.55 14,22 L14,18 C14,17.45 14.45,17 15,17 C15.55,17 16,17.45 16,18 L16,22 C16,22.55 15.55,23 15,23 Z M22,22 C22,22.55 21.55,23 21,23 C20.45,23 20,22.55 20,22 L20,18 C20,17.45 20.45,17 21,17 C21.55,17 22,17.45 22,18 L22,22 Z M24,25 C24,25.551 23.552,26 23,26 L13,26 C12.448,26 12,25.551 12,25 L12,14 L24,14 L24,25 Z M16,10.328 C16,10.173 16.214,10 16.5,10 L19.5,10 C19.786,10 20,10.173 20,10.328 L20,12 L16,12 L16,10.328 Z M26,12 L22,12 L22,10.328 C22,9.044 20.879,8 19.5,8 L16.5,8 C15.121,8 14,9.044 14,10.328 L14,12 L10,12 L9,12 C8.45,12 8,12.45 8,13 C8,13.55 8.45,14 9,14 L10,14 L10,25 C10,26.654 11.346,28 13,28 L23,28 C24.654,28 26,26.654 26,25 L26,14 L27,14 C27.55,14 28,13.55 28,13 C28,12.45 27.55,12 27,12 L26,12 Z" id="Mask" fill="#231F20"></path>
    </g>
</svg>