<?xml version="1.0" encoding="UTF-8"?>
<svg width="36px" height="36px" viewBox="0 0 36 36" version="1.1" xmlns="http://www.w3.org/2000/svg" xmlns:xlink="http://www.w3.org/1999/xlink">
    <!-- Generator: Sketch 52.6 (67491) - http://www.bohemiancoding.com/sketch -->
    <title>btn/btn-azure</title>
    <desc>Created with Sketch.</desc>
    <g id="btn/btn-azure" stroke="none" stroke-width="1" fill="none" fill-rule="evenodd">
        <g id="btn-bkg"></g>
        <path d="M24.81,12.854 C23.826,9.9932 21.0972,8 18,8 C14.904,8 12.1752,9.9932 11.19,12.854 C8.2632,13.2512 6,15.7664 6,18.8 C6,20.2652 6.5328,21.6752 7.5012,22.7708 C7.9392,23.2664 8.6964,23.3156 9.1944,22.8764 C9.6912,22.436 9.738,21.6788 9.3,21.1808 C8.7192,20.5256 8.4,19.6784 8.4,18.8 C8.4,16.8152 10.0152,15.2 12,15.2 L12.12,15.2 C12.6912,15.2 13.1844,14.7968 13.2972,14.2364 C13.7448,12.014 15.7236,10.4 18,10.4 C20.2776,10.4 22.2552,12.014 22.704,14.2364 C22.8168,14.7968 23.3088,15.2 23.88,15.2 L24,15.2 C25.9848,15.2 27.6,16.8152 27.6,18.8 C27.6,19.6784 27.2808,20.5256 26.7012,21.1808 C26.262,21.6788 26.31,22.436 26.8056,22.8764 C27.0348,23.078 27.318,23.1764 27.6,23.1764 C27.9324,23.1764 28.2624,23.0384 28.5,22.7708 C29.4672,21.6752 30,20.2652 30,18.8 C30,15.7664 27.7368,13.2512 24.81,12.854" id="Mask" fill="#231F20"></path>
        <path d="M24,25.8 L21.3732155,25.8 L20.3290279,23.346794 L15.5486064,23.346794 L14.5615228,25.8 L12,25.8 L16.6580557,15 L19.2114208,15 L24,25.8 Z M19.5540449,21.5271487 L17.9061863,17.5195089 L16.2909585,21.5271487 L19.5540449,21.5271487 Z" id="A" fill="#000000"></path>
    </g>
</svg>