<?xml version="1.0" encoding="UTF-8"?>
<svg width="36px" height="36px" viewBox="0 0 36 36" version="1.1" xmlns="http://www.w3.org/2000/svg" xmlns:xlink="http://www.w3.org/1999/xlink">
    <!-- Generator: Sketch 52.6 (67491) - http://www.bohemiancoding.com/sketch -->
    <title>btn/btn-fee</title>
    <desc>Created with Sketch.</desc>
    <g id="btn/btn-fee" stroke="none" stroke-width="1" fill="none" fill-rule="evenodd">
        <g id="btn-bkg"></g>
        <path d="M9.2,18 C9.2,13.1479 13.1479,9.2 18,9.2 C22.8521,9.2 26.8,13.1479 26.8,18 C26.8,22.8521 22.8521,26.8 18,26.8 C13.1479,26.8 9.2,22.8521 9.2,18 Z M7,18 C7,24.0654 11.9346,29 18,29 C24.0654,29 29,24.0654 29,18 C29,11.9346 24.0654,7 18,7 C11.9346,7 7,11.9346 7,18 Z" id="Mask" fill="#231F20"></path>
        <path d="M18.971,10.856 L18.971,11.940087 C20.8318293,12.1809952 21.9382683,13.144628 21.9382683,14.6589082 L21.9382683,14.8998164 L19.3733415,15.0718937 L19.3733415,14.79657 C19.3733415,13.9533913 18.9207073,13.5576135 17.9651463,13.5576135 C17.1604634,13.5576135 16.6072439,13.8845604 16.6072439,14.5728696 L16.6072439,14.79657 C16.6072439,15.4676715 17.1353171,16.0183188 18.8704146,17.1024058 C21.2341707,18.5994783 22.064,19.5803188 22.064,20.8881063 L22.064,21.1806377 C22.064,22.6949179 20.8569756,23.6241353 18.971,23.8478357 L18.971,25.104 L16.8587073,25.104 L16.8587073,23.8478357 C14.997878,23.5725121 13.816,22.626087 13.816,21.1290145 L13.816,20.4407053 L16.3809268,20.268628 L16.3809268,20.9913527 C16.3809268,21.8345314 16.8838537,22.2303092 17.94,22.2303092 C18.7195366,22.2303092 19.3984878,21.9033623 19.3984878,21.2150531 L19.3984878,20.9569372 C19.3984878,20.2858357 18.8704146,19.7351884 17.1353171,18.6511014 C14.771561,17.154029 13.9417317,16.1731884 13.9417317,14.865401 L13.9417317,14.607285 C13.9417317,13.1102126 15.0230244,12.1809952 16.8587073,11.940087 L16.8587073,10.856 L18.971,10.856 Z" id="$" fill="#000000"></path>
    </g>
</svg>