<?xml version="1.0" encoding="UTF-8"?>
<svg width="36px" height="36px" viewBox="0 0 36 36" version="1.1" xmlns="http://www.w3.org/2000/svg" xmlns:xlink="http://www.w3.org/1999/xlink">
    <!-- Generator: Sketch 52.6 (67491) - http://www.bohemiancoding.com/sketch -->
    <title>btn/btn-account</title>
    <desc>Created with Sketch.</desc>
    <defs>
        <path d="M23.5,14.6 C24.1072,14.6 24.6,15.0939 24.6,15.7 C24.6,16.3061 24.1072,16.8 23.5,16.8 C22.8928,16.8 22.4,16.3061 22.4,15.7 C22.4,15.0939 22.8928,14.6 23.5,14.6 M23.5,19 C25.3194,19 26.8,17.5194 26.8,15.7 C26.8,13.8806 25.3194,12.4 23.5,12.4 C21.6806,12.4 20.2,13.8806 20.2,15.7 C20.2,17.5194 21.6806,19 23.5,19 M14.7,10.2 C15.9133,10.2 16.9,11.1867 16.9,12.4 C16.9,13.6133 15.9133,14.6 14.7,14.6 C13.4867,14.6 12.5,13.6133 12.5,12.4 C12.5,11.1867 13.4867,10.2 14.7,10.2 M14.7,16.8 C12.2734,16.8 10.3,14.8266 10.3,12.4 C10.3,9.9734 12.2734,8 14.7,8 C17.1266,8 19.1,9.9734 19.1,12.4 C19.1,14.8266 17.1266,16.8 14.7,16.8 Z M23.5,20.1 C26.5327,20.1 29,22.5673 29,25.6 C29,26.2072 28.5083,26.7 27.9,26.7 C27.2917,26.7 26.8,26.2072 26.8,25.6 C26.8,23.7806 25.3194,22.3 23.5,22.3 C22.7487,22.3 22.0348,22.5574 21.4584,23.0139 C22.0568,24.1095 22.4,25.3657 22.4,26.7 C22.4,27.3072 21.9083,27.8 21.3,27.8 C20.6917,27.8 20.2,27.3072 20.2,26.7 C20.2,23.6673 17.7327,21.2 14.7,21.2 C11.6673,21.2 9.2,23.6673 9.2,26.7 C9.2,27.3072 8.7083,27.8 8.1,27.8 C7.4917,27.8 7,27.3072 7,26.7 C7,22.454 10.4551,19 14.7,19 C16.8197,19 18.7403,19.8613 20.134,21.2506 C21.0899,20.5114 22.2669,20.1 23.5,20.1 Z" id="path-1"></path>
    </defs>
    <g id="btn/btn-account" stroke="none" stroke-width="1" fill="none" fill-rule="evenodd">
        <g id="btn-bkg"></g>
        <mask id="mask-2" fill="white">
            <use xlink:href="#path-1"></use>
        </mask>
        <use id="Mask" fill="#231F20" xlink:href="#path-1"></use>
    </g>
</svg>