<?xml version="1.0" encoding="UTF-8"?>
<svg width="36px" height="36px" viewBox="0 0 36 36" version="1.1" xmlns="http://www.w3.org/2000/svg" xmlns:xlink="http://www.w3.org/1999/xlink">
    <!-- Generator: Sketch 52.6 (67491) - http://www.bohemiancoding.com/sketch -->
    <title>btn/btn-auth</title>
    <desc>Created with Sketch.</desc>
    <g id="btn/btn-auth" stroke="none" stroke-width="1" fill="none" fill-rule="evenodd">
        <g id="btn-bkg"></g>
        <g id="Group" transform="translate(10.000000, 7.000000)" fill="#231F20">
            <path d="M14.28425,19.8 L2.7146875,19.8 C2.3895625,19.8 2.125,19.5536 2.125,19.25 L2.125,2.75 C2.125,2.4464 2.3895625,2.2 2.7146875,2.2 L8.5,2.2 L8.5,5.665 C8.5,7.3942 9.7930625,8.8 11.383625,8.8 L14.875,8.8 L14.875,19.25 C14.875,19.5536 14.6104375,19.8 14.28425,19.8 Z M10.625,3.2758 L13.538375,6.6 L11.383625,6.6 C10.965,6.6 10.625,6.1809 10.625,5.665 L10.625,3.2758 Z M16.72375,6.9608 L10.9395,0.3608 C10.737625,0.1309 10.452875,0 10.1521875,0 L2.7146875,0 C1.217625,0 0,1.2342 0,2.75 L0,19.25 C0,20.7658 1.217625,22 2.7146875,22 L14.28425,22 C15.7813125,22 17,20.7658 17,19.25 L17,7.7 C17,7.4261 16.9011875,7.1632 16.72375,6.9608 Z" id="Mask-Copy"></path>
            <path d="M11.9253901,10.433872 L7.7629901,15.899772 L5.9666901,13.605172 C5.5926901,13.125572 4.8996901,13.041972 4.4222901,13.417072 C3.9437901,13.791072 3.8590901,14.482972 4.2341901,14.960372 L6.9082901,18.378072 C7.1172901,18.644272 7.4362901,18.799372 7.7750901,18.799372 L7.7827901,18.799372 C8.1226901,18.798272 8.4438901,18.637672 8.6495901,18.365972 L13.6754901,11.765972 C14.0439901,11.281972 13.9504901,10.593372 13.4664901,10.224872 C12.9813901,9.85637204 12.2927901,9.95097204 11.9253901,10.433872" id="Fill-1676"></path>
        </g>
    </g>
</svg>