<?xml version="1.0" encoding="UTF-8"?>
<svg width="36px" height="36px" viewBox="0 0 36 36" version="1.1" xmlns="http://www.w3.org/2000/svg" xmlns:xlink="http://www.w3.org/1999/xlink">
    <!-- Generator: Sketch 52.6 (67491) - http://www.bohemiancoding.com/sketch -->
    <title>btn/btn-relate</title>
    <desc>Created with Sketch.</desc>
    <g id="btn/btn-relate" stroke="none" stroke-width="1" fill="none" fill-rule="evenodd">
        <g id="btn-bkg"></g>
        <path d="M19.4219108,15.0223395 C19.8520112,14.5922391 20.5472119,14.5922391 20.9773123,15.0223395 C21.4074127,15.4524399 21.4074127,16.1476406 20.9773123,16.577741 L16.577308,20.9777453 C16.3628078,21.1922455 16.0812075,21.3000456 15.7996072,21.3000456 C15.518007,21.3000456 15.2364067,21.1922455 15.0219065,20.9777453 C14.5918061,20.5476449 14.5918061,19.8524442 15.0219065,19.4223438 L19.4219108,15.0223395 Z M19.3079397,22.9361982 C19.7413401,22.5038977 20.4420408,22.5038977 20.8754412,22.9361982 C21.3077416,23.3684986 21.3077416,24.0669993 20.8754412,24.4992997 L19.3079397,26.0613012 C16.511737,28.8487039 11.8257324,28.6309037 9.32762996,25.4046006 C7.26182795,22.738198 7.68092835,18.9057942 10.0701307,16.5231919 L11.4726321,15.1228906 C11.9060325,14.6927901 12.6078332,14.6927901 13.0401336,15.1228906 C13.472434,15.555191 13.472434,16.2547917 13.0401336,16.6859921 L11.4726321,18.2479936 C9.64993027,20.0662954 9.75003037,23.0868983 11.7729323,24.7721 C13.5637341,26.2648014 16.2554367,25.9810011 17.9065383,24.3342995 L19.3079397,22.9361982 Z M25.4279276,9.34170296 C28.6322307,11.8475054 28.8423309,16.51701 26.0582282,19.3077127 L24.4929267,20.8752142 C24.0606263,21.3086146 23.3610256,21.3086146 22.9287252,20.8752142 C22.4964248,20.4429138 22.4964248,19.7400131 22.9287252,19.3077127 L24.4929267,17.7391112 C26.3134285,15.9164094 26.2144284,12.8859064 24.1937264,11.1941048 C22.4040247,9.69480331 19.717822,9.98080359 18.0689204,11.6330052 L16.6686191,13.0355066 C16.2374186,13.468907 15.535618,13.468907 15.1044175,13.0355066 C14.6721171,12.6032061 14.6677171,11.9047055 15.2991177,11.2722048 L16.4794189,10.0897037 C18.8796212,7.68400135 22.752725,7.24950092 25.4279276,9.34170296 Z" id="Mask" fill="#231F20"></path>
    </g>
</svg>