<?xml version="1.0" encoding="UTF-8"?>
<svg width="36px" height="36px" viewBox="0 0 36 36" version="1.1" xmlns="http://www.w3.org/2000/svg" xmlns:xlink="http://www.w3.org/1999/xlink">
    <!-- Generator: Sketch 52.6 (67491) - http://www.bohemiancoding.com/sketch -->
    <title>btn/btn-pwd</title>
    <desc>Created with Sketch.</desc>
    <g id="btn/btn-pwd" stroke="none" stroke-width="1" fill="none" fill-rule="evenodd">
        <g id="btn-bkg"></g>
        <path d="M18,22.75 C17.379,22.75 16.875,22.246 16.875,21.625 C16.875,21.004 17.379,20.5 18,20.5 C18.621,20.5 19.125,21.004 19.125,21.625 C19.125,22.246 18.621,22.75 18,22.75 M18,18.25 C16.13925,18.25 14.625,19.76425 14.625,21.625 C14.625,23.48575 16.13925,25 18,25 C19.86075,25 21.375,23.48575 21.375,21.625 C21.375,19.76425 19.86075,18.25 18,18.25 M24.75,26.125 C24.75,26.746 24.246,27.25 23.625,27.25 L12.375,27.25 C11.754,27.25 11.25,26.746 11.25,26.125 L11.25,17.125 C11.25,16.504 11.754,16 12.375,16 L23.625,16 C24.246,16 24.75,16.504 24.75,17.125 L24.75,26.125 Z M23.625,13.75 L15.75,13.75 L15.75,11.5 C15.75,10.259125 16.759125,9.25 18,9.25 C19.240875,9.25 20.25,10.259125 20.25,11.5 C20.25,12.122125 20.752875,12.625 21.375,12.625 C21.997125,12.625 22.5,12.122125 22.5,11.5 C22.5,9.01825 20.48175,7 18,7 C15.51825,7 13.5,9.01825 13.5,11.5 L13.5,13.75 L12.375,13.75 C10.51425,13.75 9,15.26425 9,17.125 L9,26.125 C9,27.98575 10.51425,29.5 12.375,29.5 L23.625,29.5 C25.48575,29.5 27,27.98575 27,26.125 L27,17.125 C27,15.26425 25.48575,13.75 23.625,13.75 Z" id="Mask" fill="#231F20"></path>
    </g>
</svg>